<mxfile host="app.diagrams.net" modified="2023-05-30T10:50:39.076Z" agent="Mozilla/5.0 (Windows NT 10.0; Win64; x64) AppleWebKit/537.36 (KHTML, like Gecko) Chrome/112.0.0.0 Safari/537.36 OPR/98.0.0.0 (Edition std-1)" version="21.3.5" etag="ng1v5RFdRVaFyVT9c52I" type="github">
  <diagram name="PÃ¡gina-1" id="4OG7HD47j7kiAL7MGZzp">
    <mxGraphModel>
      <root>
        <mxCell id="0" />
        <mxCell id="1" parent="0" />
      </root>
    </mxGraphModel>
  </diagram>
</mxfile>
